<svg xmlns="http://www.w3.org/2000/svg" version="1.1" xmlns:xlink="http://www.w3.org/1999/xlink" xmlns:svgjs="http://svgjs.com/svgjs" width="1440" height="609" preserveAspectRatio="none" viewBox="0 0 1440 609">
    <g mask="url(&quot;#SvgjsMask2354&quot;)" fill="none">
        <rect width="1440" height="609" x="0" y="0" fill="rgba(101, 124, 161, 1)"></rect>
        <use xlink:href="#SvgjsG2369" transform="translate(0, 0)" fill="rgba(244, 177, 177, 1)"></use>
        <use xlink:href="#SvgjsG2369" transform="translate(676.0000000000001, 0)" fill="rgba(190, 239, 185, 1)"></use>
        <use xlink:href="#SvgjsG2369" transform="translate(1352.0000000000002, 0)" fill="rgba(190, 239, 185, 1)"></use>
    </g>
    <defs>
        <mask id="SvgjsMask2354">
            <rect width="1440" height="609" fill="#ffffff"></rect>
        </mask>
        <g id="SvgjsG2366">
            <path d="M6.498 9.304L12.139 3.663l1.565 1.566-5.641 5.641z"></path>
            <path d="M6.8 0.457h2.541v8.028H6.8z"></path>
            <path d="M8.072 10.876L2.429 5.238l1.563-1.566L9.636 9.313zM1.2 13.277h13.733v2.266H1.2z"></path>
            <path d="M0.733 9.143h2.267v6.4h-2.267z m12.267 0h2.267v6.4h-2.267z"></path>
        </g>
        <g id="SvgjsG2356">
            <path d="M7.713 15.485C3.459 15.485 0 12.025 0 7.768 0 3.513 3.459 0.051 7.713 0.051S15.432 3.513 15.432 7.768c0 4.257-3.465 7.716-7.719 7.717z m0-1.91c3.201 0 5.81-2.604 5.81-5.809 0-3.199-2.61-5.807-5.81-5.807-3.202 0-5.804 2.609-5.804 5.807-0.001 3.206 2.602 5.809 5.804 5.809z"></path>
            <path d="M7.753 8.787a0.574 0.574 0 0 1-0.554-0.042 0.578 0.578 0 0 1-0.259-0.399L6.931 3.862a0.58 0.58 0 0 1 1.162 0v3.478l2.975-1.4a0.578 0.578 0 0 1 0.773 0.275c0.138 0.292 0.011 0.637-0.276 0.774l-3.81 1.798z"></path>
        </g>
        <g id="SvgjsG2364">
            <path d="M2.524 8.637H0.014V7.308h2.51v1.329zM3.656 4.576L1.884 2.804l0.935-0.935 1.772 1.772-0.935 0.935z m0 6.817l0.935 0.935-1.772 1.773-0.934-0.936 1.771-1.772z m4.997-8.884h-1.33V-0.002h1.33v2.511z m-1.33 10.952h1.33v2.51h-1.33v-2.509zM12.344 4.576l-0.96-0.935 1.796-1.772 0.935 0.935-1.772 1.772z m0 6.792l1.771 1.797-0.935 0.936-1.771-1.774 0.936-0.96z m3.643-4.06v1.329h-2.51V7.308h2.509z"></path>
            <path d="M3.702 7.984a4.184 4.184 0 1 0 8.368 0 4.184 4.184 0 1 0-8.368 0"></path>
        </g>
        <g id="SvgjsG2368">
            <path d="M15.233 9.431c0.295 0 0.569-0.239 0.61-0.532 0 0 0.056-0.411 0.056-0.899s-0.056-0.899-0.056-0.899c-0.041-0.292-0.315-0.531-0.61-0.53h-1.524c-0.295 0-0.602-0.188-0.681-0.418s-0.188-0.967 0.021-1.176l1.078-1.077c0.209-0.209 0.225-0.565 0.036-0.792l-1.268-1.268c-0.227-0.189-0.583-0.173-0.792 0.036l-1.078 1.077c-0.208 0.209-0.556 0.293-0.772 0.187s-0.822-0.552-0.821-0.847V0.767c0-0.295-0.239-0.569-0.531-0.61 0 0-0.411-0.057-0.9-0.056s-0.899 0.057-0.899 0.056c-0.293 0.04-0.532 0.315-0.532 0.61v1.524c0 0.295-0.188 0.601-0.418 0.681s-0.967 0.188-1.176-0.021l-1.078-1.078C3.689 1.665 3.333 1.649 3.107 1.837l-1.268 1.268c-0.189 0.227-0.173 0.583 0.036 0.792l1.077 1.078c0.209 0.209 0.293 0.556 0.187 0.772s-0.552 0.822-0.847 0.822H0.767c-0.295 0-0.569 0.239-0.61 0.531 0 0-0.057 0.411-0.056 0.899s0.057 0.899 0.056 0.9c0.04 0.293 0.315 0.532 0.61 0.532h1.525c0.295 0 0.601 0.188 0.681 0.417 0.079 0.23 0.188 0.967-0.02 1.176l-1.078 1.077C1.667 12.311 1.651 12.667 1.84 12.893l1.267 1.268c0.227 0.189 0.583 0.173 0.792-0.036l1.077-1.077c0.209-0.208 0.556-0.292 0.772-0.187s0.821 0.553 0.822 0.848v1.524c0 0.295 0.239 0.569 0.532 0.61 0 0 0.411 0.057 0.899 0.057s0.899-0.056 0.899-0.057c0.293-0.04 0.531-0.315 0.532-0.609v-1.524c0-0.295 0.188-0.602 0.418-0.681 0.23-0.079 0.967-0.188 1.176 0.021l1.077 1.077c0.209 0.209 0.565 0.225 0.792 0.036l1.268-1.267c0.189-0.227 0.173-0.583-0.036-0.792l-1.078-1.077c-0.209-0.209-0.293-0.557-0.186-0.773 0.106-0.216 0.552-0.822 0.847-0.822h1.525zM8 10.892c-1.597 0-2.891-1.294-2.891-2.892 0-1.596 1.295-2.891 2.891-2.891S10.892 6.404 10.892 8 9.597 10.892 8 10.892z"></path>
        </g>
        <g id="SvgjsG2355">
            <path d="M8 2.022C3.815 2.022 0.422 4.579 0.422 7.733c0 1.544 0.814 2.944 2.135 3.972l0.003 3.427 3.961-1.798c0.479 0.071 0.973 0.11 1.48 0.11 4.185 0 7.578-2.557 7.578-5.711 0-3.154-3.392-5.711-7.577-5.711zM4.81 8.933a1.067 1.067 0 1 1 0-2.133 1.067 1.067 0 0 1 0 2.133z m3.186 0a1.067 1.067 0 1 1 0-2.133 1.067 1.067 0 0 1 0 2.133z m3.143 0c-0.589 0-1.067-0.478-1.067-1.066s0.477-1.067 1.067-1.067 1.067 0.478 1.067 1.067a1.067 1.067 0 0 1-1.067 1.066z"></path>
        </g>
        <g id="SvgjsG2360">
            <path d="M11.675 13.031H3.563V2.436h8.112v10.595z m-4.054 1.54a0.457 0.457 0 1 1 0-0.912 0.457 0.457 0 0 1 0 0.912zM6.921 1.287h1.395c0.196 0 0.196 0.356 0 0.356h-1.397c-0.199 0-0.199-0.356 0-0.356zM11.495 0.409H3.744C3.413 0.409 3.143 0.761 3.143 1.191V14.276c0 0.427 0.267 0.779 0.601 0.778h7.751c0.332 0 0.604-0.35 0.605-0.778V1.191c0-0.432-0.272-0.782-0.605-0.782z" fill-rule="evenodd"></path>
        </g>
        <g id="SvgjsG2358">
            <path d="M0 6.205v9.789h15.439V6.205H0z m8.544 4.62V13.641h-1.669V10.824c-0.349-0.257-0.576-0.669-0.576-1.136 0-0.779 0.632-1.411 1.412-1.41s1.411 0.632 1.411 1.41c0 0.467-0.227 0.879-0.576 1.136l-0.002 0.001z"></path>
            <path d="M5.254 0.572c-3.126 1.327-4.589 4.949-3.262 8.075l2.342-0.995L13.328 3.834C12.001 0.709 8.379-0.754 5.254 0.572z m-0.938 7.088c-0.782-1.844 0.081-3.98 1.925-4.762s3.98 0.08 4.762 1.924L4.317 7.66l-0.001 0z"></path>
        </g>
        <g id="SvgjsG2362">
            <path d="M1.316 13.81h14.019V3.175H1.316v10.635z m12.302-9.643L9.143 8.635c-0.457 0.459-1.269 0.448-1.735-0.018l-4.444-4.45h10.648z m-11.31 0.693l3.626 3.638-3.637 3.644 0.007-7.278z m0.654 7.97l3.641-3.635 0.156 0.149c0.86 0.818 2.228 0.818 3.049 0l0.156-0.156 3.663 3.644h-10.667z m11.353-0.693L10.677 8.501 14.311 4.862V12.142z" fill-rule="evenodd"></path>
        </g>
        <g id="SvgjsG2367">
            <path d="M0.045 14.984h15.726V0H0.045v14.984zM1.389 3.404c0-1.105 0.893-2 2.004-2h9.04a2 2 0 0 1 2.002 2V8.838H13.221l-0.751-2.043a0.317 0.317 0 0 0-0.596 0.004c-0.045 0.125-0.212 0.602-0.42 1.194-0.32-1.336-0.993-4.158-0.993-4.158a0.315 0.315 0 0 0-0.326-0.243c-0.155 0.008-0.28 0.126-0.298 0.28s-0.515 4.598-0.664 5.913c-0.269-0.404-0.536-0.808-0.536-0.809a0.318 0.318 0 0 0-0.264-0.139h-1.221a1168.611 1168.611 0 0 0-0.749-2.043 0.32 0.32 0 0 0-0.301-0.206 0.312 0.312 0 0 0-0.294 0.21l-0.424 1.194c-0.319-1.335-0.992-4.158-0.992-4.157a0.317 0.317 0 0 0-0.624 0.037c0-0.001-0.515 4.596-0.664 5.912L2.567 8.977a0.316 0.316 0 0 0-0.263-0.139H1.389V3.404z m11.043 10.332H3.392a2 2 0 0 1-2.003-2.005v-2.261h0.741c0.156 0.233 0.924 1.389 0.924 1.39a0.318 0.318 0 0 0 0.58-0.14c0.016-0.133 0.341-3.034 0.56-4.975 0.366 1.541 0.821 3.439 0.821 3.439 0.031 0.137 0.15 0.236 0.29 0.243 0.142 0.008 0.269-0.079 0.316-0.211 0 0 0.257-0.731 0.487-1.377 0.243 0.661 0.526 1.423 0.526 1.423a0.312 0.312 0 0 0 0.295 0.208h1.271c0.156 0.232 0.925 1.389 0.925 1.389a0.316 0.316 0 0 0 0.337 0.132c0.131-0.03 0.227-0.14 0.241-0.272s0.342-3.034 0.561-4.976c0.366 1.543 0.819 3.44 0.82 3.44 0.032 0.137 0.15 0.236 0.29 0.243 0.142 0.008 0.269-0.079 0.315-0.211 0 0 0.26-0.731 0.488-1.377 0.242 0.661 0.523 1.423 0.523 1.423a0.315 0.315 0 0 0 0.296 0.208h1.436v2.261a2.001 2.001 0 0 1-2 2.003z" fill-rule="evenodd"></path>
        </g>
        <g id="SvgjsG2361">
            <path d="M9.412 5.113c1.273 0 2.378 0.701 2.988 1.734l3.596 0.004v-1.949c0-0.725-0.584-1.314-1.299-1.314H1.295C0.578 3.588 0 4.176 0 4.902l0.004 1.932 6.418 0.005c0.614-1.029 1.715-1.725 2.99-1.725M3.361 2.97h-1.192l-0.138 0.434h1.429l-0.099-0.434zM14.11 2.738h-1.587L12.242 3.408H14.368l-0.258-0.67zM8.662 3.177h-1.366V2.508h1.366v0.669zM9.914 2.24h-3.857l-0.795 1.176h5.38L9.914 2.24z m2.672 4.955c0.199 0.443 0.316 0.93 0.316 1.449 0 1.949-1.563 3.531-3.49 3.531-1.93 0-3.493-1.582-3.493-3.531 0-0.519 0.116-1.006 0.316-1.451H0V12.514c0 0.721 0.577 1.309 1.295 1.309h13.401c0.716 0 1.299-0.588 1.3-1.309L16 7.195H12.586z"></path>
            <path d="M11.315 7.484a1.717 1.717 0 0 0-0.199-0.278c-0.408-0.496-1.018-0.822-1.704-0.823-0.69 0-1.299 0.324-1.707 0.818-0.075 0.09-0.144 0.182-0.203 0.283-0.205 0.34-0.33 0.734-0.329 1.16 0 1.246 1.002 2.258 2.237 2.258 1.23 0 2.232-1.013 2.232-2.259 0-0.427-0.122-0.819-0.329-1.16"></path>
        </g>
        <g id="SvgjsG2357">
            <path d="M7.45 12.652S6.4 11.121 3.725 11.121C1.274 11.121 0 11.833 0 11.833V1.937s1.274-0.712 3.725-0.729C6.4 1.19 7.45 2.756 7.45 2.756V12.652z m1.087 0s1.05-1.531 3.725-1.531c2.451 0 3.725 0.712 3.725 0.713V1.937s-1.274-0.712-3.725-0.729c-2.675-0.017-3.725 1.548-3.725 1.548v9.896z"></path>
            <path d="M8.012 15.733S6.4 13.411 3.725 13.411c-2.451 0-3.725 0.712-3.725 0.712v-1.186s1.274-0.712 3.725-0.729c2.675-0.018 4.287 2.34 4.287 2.34V15.733z m0 0s1.612-2.323 4.287-2.323c2.451 0 3.725 0.712 3.725 0.712v-1.185s-1.274-0.712-3.725-0.729c-2.675-0.019-4.287 2.339-4.287 2.339v1.185z"></path>
        </g>
        <g id="SvgjsG2365">
            <path d="M2.115 12.192a1.05 1.05 0 1 1 0-2.1 1.05 1.05 0 0 1 0 2.1zM0 16V13.942c0-0.742 0.61-1.344 1.352-1.344h1.45c0.743 0 1.406 0.603 1.406 1.345V16H0z m13-3.897a1.051 1.051 0 0 0 1.05-1.05 1.05 1.05 0 0 0-2.099 0 1.05 1.05 0 0 0 1.051 1.049zM15.114 16V13.942c0-0.742-0.61-1.344-1.353-1.344h-1.448c-0.744 0-1.406 0.603-1.407 1.345V16h4.208z"></path>
            <path d="M6.494 11.133a1.062 1.053 0 1 0 2.124 0 1.062 1.053 0 1 0-2.124 0"></path>
            <path d="M4.998 16l0.836-2.277c0.335-1.163 1.31-1.128 1.309-1.127h0.828s0.974-0.036 1.309 1.127L10.116 16h-5.118z m2.558-7.25v-2.491l-0.414-0.414v2.49H0.885V0.414h6.257V4.483l0.414 0.414V0H0.474v8.75h7.082z m5.44-4.548a1.049 1.049 0 0 1-1.048-1.048c0-0.579 0.47-1.049 1.048-1.049a1.047 1.047 0 0 1 1.047 1.048 1.046 1.046 0 0 1-1.048 1.048z"></path>
            <path d="M8.329 6.958a0.441 0.441 0 0 0 0.442 0.442h1.454c0.165 0 0.382-0.066 0.474-0.205 0.314-0.464 0.643-0.953 0.741-1.1v2.749h3.661V6.025c0-0.737-0.576-1.401-1.256-1.4 0.002 0.346 0 0.118 0-0.015H12.082a1.343 1.343 0 0 0-1.119 0.599l-0.871 1.313-1.32-0.001L6.907 4.656a0.179 0.179 0 0 0-0.254 0 0.18 0.18 0 0 0 0 0.254l1.774 1.775c-0.038 0.063-0.098 0.192-0.097 0.273z"></path>
        </g>
        <g id="SvgjsG2363">
            <path d="M10.596 3.917a0.64 0.64 0 0 0-0.639 0.641c0 0.354 0.287 0.64 0.639 0.64a0.639 0.639 0 0 0 0.639-0.64 0.639 0.639 0 0 0-0.639-0.641z m-0.151 5.25a0.642 0.642 0 0 0 0.643 0.641c0.352 0 0.638-0.286 0.637-0.64a0.639 0.639 0 0 0-0.637-0.641 0.641 0.641 0 0 0-0.642 0.641z m-4.678-5.945a0.641 0.641 0 0 0 0 1.282 0.64 0.64 0 0 0 0.642-0.64 0.641 0.641 0 0 0-0.642-0.642z"></path>
            <path d="M8.659 0C5.904 0 3.363 2.068 2.835 4.347c-0.119 0.507-0.25 1.83-0.25 1.829L1.316 9.37A0.488 0.488 0 0 0 1.28 9.561a0.491 0.491 0 0 0 0.491 0.489h0.814v1.697c0 1.323 1.072 2.395 2.394 2.395h0.951V16H12.408V10.847c1.413-1.111 2.32-2.838 2.32-4.775C14.728 2.718 12.01 0 8.659 0z m-4.583 7.387c-0.372 0-0.675-0.304-0.675-0.679a0.677 0.677 0 0 1 0.675-0.677c0.375 0 0.68 0.303 0.68 0.677a0.68 0.68 0 0 1-0.68 0.679z m8.959-0.918l-0.631 0.632-0.77-0.543c-0.148 0.077-0.304 0.139-0.467 0.18l-0.142 0.838h0.294l0.079 0.448c0.031 0.008 0.062 0.013 0.092 0.024 0.079 0.029 0.152 0.067 0.22 0.11l0.355-0.25 0.292 0.291-0.262 0.371c0.056 0.1 0.101 0.206 0.125 0.318l0.429 0.074v0.412l-0.446 0.076c-0.009 0.032-0.013 0.063-0.024 0.094a1.147 1.147 0 0 1-0.112 0.223l0.251 0.353-0.292 0.291-0.369-0.262a1.149 1.149 0 0 1-0.318 0.126l-0.075 0.429H10.851l-0.074-0.448c-0.032-0.009-0.064-0.013-0.096-0.025a1.174 1.174 0 0 1-0.221-0.11l-0.356 0.252L9.815 10.08l0.262-0.37a1.151 1.151 0 0 1-0.125-0.319l-0.431-0.074v-0.411l0.45-0.077c0.008-0.032 0.013-0.063 0.025-0.094 0.029-0.079 0.066-0.152 0.109-0.22l-0.251-0.356 0.291-0.291 0.371 0.262a1.174 1.174 0 0 1 0.317-0.125l0.064-0.372h-0.776L9.96 6.704c-0.035-0.011-0.07-0.02-0.104-0.034a2.221 2.221 0 0 1-0.352-0.168l-0.744 0.524-0.63-0.632 0.542-0.767a2.184 2.184 0 0 1-0.181-0.469l-0.894-0.154V4.27l-0.449 0.078c-0.007 0.022-0.009 0.044-0.017 0.065a1.402 1.402 0 0 1-0.109 0.223l0.345 0.489-0.416 0.414-0.506-0.357a1.438 1.438 0 0 1-0.294 0.116l-0.102 0.586-0.584 0-0.106-0.611c-0.02-0.007-0.042-0.009-0.062-0.017a1.43 1.43 0 0 1-0.226-0.11l-0.49 0.345-0.414-0.415 0.359-0.508a1.485 1.485 0 0 1-0.112-0.291L3.824 4.176V3.589l0.608-0.105c0.007-0.022 0.012-0.043 0.02-0.063 0.029-0.08 0.068-0.154 0.109-0.225l-0.345-0.488 0.413-0.415 0.508 0.358a1.439 1.439 0 0 1 0.295-0.117l0.102-0.586h0.584L6.224 2.56c0.021 0.007 0.043 0.008 0.063 0.016 0.08 0.03 0.154 0.069 0.225 0.11l0.489-0.344 0.415 0.414-0.359 0.507a1.397 1.397 0 0 1 0.115 0.293l0.586 0.101v0.427l0.768-0.132c0.011-0.035 0.02-0.07 0.033-0.105 0.046-0.126 0.104-0.243 0.17-0.355l-0.528-0.74 0.634-0.633 0.77 0.544a2.192 2.192 0 0 1 0.468-0.181l0.151-0.894h0.894l0.162 0.928c0.035 0.01 0.069 0.02 0.104 0.033 0.124 0.046 0.241 0.104 0.352 0.168l0.743-0.523 0.629 0.631-0.542 0.77c0.077 0.148 0.138 0.304 0.18 0.466l0.895 0.154v0.894l-0.929 0.16c-0.011 0.035-0.02 0.07-0.032 0.104-0.046 0.125-0.104 0.242-0.17 0.353l0.525 0.743z"></path>
        </g>
        <g id="SvgjsG2359">
            <path d="M8.579 0C5.824 0 3.283 2.068 2.755 4.347c-0.119 0.507-0.25 1.83-0.25 1.829L1.236 9.37A0.488 0.488 0 0 0 1.2 9.561a0.491 0.491 0 0 0 0.491 0.489h0.814v1.697c0 1.323 1.072 2.395 2.394 2.396h0.951V16h6.478V10.847c1.413-1.111 2.32-2.838 2.32-4.775C14.648 2.718 11.93 0 8.579 0z m-4.583 7.387c-0.372 0-0.675-0.304-0.675-0.679a0.677 0.677 0 0 1 0.675-0.677c0.375 0 0.68 0.303 0.68 0.677a0.68 0.68 0 0 1-0.68 0.679z"></path>
        </g>
        <g id="SvgjsG2369">
            <use xlink:href="#SvgjsG2355" transform="translate(0, 0) scale(2.6)" fill="rgba(244, 177, 177, 1)"></use>
            <use xlink:href="#SvgjsG2356" transform="translate(0, 67.60000000000001) scale(2.6)" fill="rgba(244, 177, 177, 1)"></use>
            <use xlink:href="#SvgjsG2357" transform="translate(0, 135.20000000000002) scale(2.6)" fill="rgba(244, 177, 177, 1)"></use>
            <use xlink:href="#SvgjsG2358" transform="translate(0, 202.8) scale(2.6)" fill="rgba(190, 239, 185, 1)"></use>
            <use xlink:href="#SvgjsG2359" transform="translate(0, 270.40000000000003) scale(2.6)" fill="rgba(230, 174, 226, 1)"></use>
            <use xlink:href="#SvgjsG2360" transform="translate(0, 338.00000000000006) scale(2.6)" fill="rgba(174, 180, 230, 1)"></use>
            <use xlink:href="#SvgjsG2355" transform="translate(0, 405.6) scale(2.6)" fill="rgba(190, 239, 185, 1)"></use>
            <use xlink:href="#SvgjsG2361" transform="translate(0, 473.20000000000005) scale(2.6)" fill="rgba(244, 177, 177, 1)"></use>
            <use xlink:href="#SvgjsG2362" transform="translate(0, 540.8000000000001) scale(2.6)" fill="rgba(230, 174, 226, 1)"></use>
            <use xlink:href="#SvgjsG2362" transform="translate(67.60000000000001, 0) scale(2.6)" fill="rgba(190, 239, 185, 1)"></use>
            <use xlink:href="#SvgjsG2363" transform="translate(67.60000000000001, 67.60000000000001) scale(2.6)" fill="rgba(174, 180, 230, 1)"></use>
            <use xlink:href="#SvgjsG2356" transform="translate(67.60000000000001, 135.20000000000002) scale(2.6)" fill="rgba(230, 174, 226, 1)"></use>
            <use xlink:href="#SvgjsG2364" transform="translate(67.60000000000001, 202.8) scale(2.6)" fill="rgba(230, 174, 226, 1)"></use>
            <use xlink:href="#SvgjsG2365" transform="translate(67.60000000000001, 270.40000000000003) scale(2.6)" fill="rgba(190, 239, 185, 1)"></use>
            <use xlink:href="#SvgjsG2366" transform="translate(67.60000000000001, 338.00000000000006) scale(2.6)" fill="rgba(230, 174, 226, 1)"></use>
            <use xlink:href="#SvgjsG2355" transform="translate(67.60000000000001, 405.6) scale(2.6)" fill="rgba(244, 177, 177, 1)"></use>
            <use xlink:href="#SvgjsG2363" transform="translate(67.60000000000001, 473.20000000000005) scale(2.6)" fill="rgba(174, 180, 230, 1)"></use>
            <use xlink:href="#SvgjsG2357" transform="translate(67.60000000000001, 540.8000000000001) scale(2.6)" fill="rgba(190, 239, 185, 1)"></use>
            <use xlink:href="#SvgjsG2367" transform="translate(135.20000000000002, 0) scale(2.6)" fill="rgba(230, 174, 226, 1)"></use>
            <use xlink:href="#SvgjsG2357" transform="translate(135.20000000000002, 67.60000000000001) scale(2.6)" fill="rgba(230, 174, 226, 1)"></use>
            <use xlink:href="#SvgjsG2363" transform="translate(135.20000000000002, 135.20000000000002) scale(2.6)" fill="rgba(244, 177, 177, 1)"></use>
            <use xlink:href="#SvgjsG2367" transform="translate(135.20000000000002, 202.8) scale(2.6)" fill="rgba(174, 180, 230, 1)"></use>
            <use xlink:href="#SvgjsG2363" transform="translate(135.20000000000002, 270.40000000000003) scale(2.6)" fill="rgba(230, 174, 226, 1)"></use>
            <use xlink:href="#SvgjsG2360" transform="translate(135.20000000000002, 338.00000000000006) scale(2.6)" fill="rgba(174, 180, 230, 1)"></use>
            <use xlink:href="#SvgjsG2364" transform="translate(135.20000000000002, 405.6) scale(2.6)" fill="rgba(190, 239, 185, 1)"></use>
            <use xlink:href="#SvgjsG2368" transform="translate(135.20000000000002, 473.20000000000005) scale(2.6)" fill="rgba(174, 180, 230, 1)"></use>
            <use xlink:href="#SvgjsG2367" transform="translate(135.20000000000002, 540.8000000000001) scale(2.6)" fill="rgba(190, 239, 185, 1)"></use>
            <use xlink:href="#SvgjsG2365" transform="translate(202.8, 0) scale(2.6)" fill="rgba(190, 239, 185, 1)"></use>
            <use xlink:href="#SvgjsG2362" transform="translate(202.8, 67.60000000000001) scale(2.6)" fill="rgba(174, 180, 230, 1)"></use>
            <use xlink:href="#SvgjsG2364" transform="translate(202.8, 135.20000000000002) scale(2.6)" fill="rgba(244, 177, 177, 1)"></use>
            <use xlink:href="#SvgjsG2357" transform="translate(202.8, 202.8) scale(2.6)" fill="rgba(244, 177, 177, 1)"></use>
            <use xlink:href="#SvgjsG2368" transform="translate(202.8, 270.40000000000003) scale(2.6)" fill="rgba(190, 239, 185, 1)"></use>
            <use xlink:href="#SvgjsG2356" transform="translate(202.8, 338.00000000000006) scale(2.6)" fill="rgba(230, 174, 226, 1)"></use>
            <use xlink:href="#SvgjsG2362" transform="translate(202.8, 405.6) scale(2.6)" fill="rgba(190, 239, 185, 1)"></use>
            <use xlink:href="#SvgjsG2366" transform="translate(202.8, 473.20000000000005) scale(2.6)" fill="rgba(244, 177, 177, 1)"></use>
            <use xlink:href="#SvgjsG2358" transform="translate(202.8, 540.8000000000001) scale(2.6)" fill="rgba(174, 180, 230, 1)"></use>
            <use xlink:href="#SvgjsG2366" transform="translate(270.40000000000003, 0) scale(2.6)" fill="rgba(230, 174, 226, 1)"></use>
            <use xlink:href="#SvgjsG2359" transform="translate(270.40000000000003, 67.60000000000001) scale(2.6)" fill="rgba(174, 180, 230, 1)"></use>
            <use xlink:href="#SvgjsG2368" transform="translate(270.40000000000003, 135.20000000000002) scale(2.6)" fill="rgba(230, 174, 226, 1)"></use>
            <use xlink:href="#SvgjsG2362" transform="translate(270.40000000000003, 202.8) scale(2.6)" fill="rgba(174, 180, 230, 1)"></use>
            <use xlink:href="#SvgjsG2368" transform="translate(270.40000000000003, 270.40000000000003) scale(2.6)" fill="rgba(190, 239, 185, 1)"></use>
            <use xlink:href="#SvgjsG2360" transform="translate(270.40000000000003, 338.00000000000006) scale(2.6)" fill="rgba(174, 180, 230, 1)"></use>
            <use xlink:href="#SvgjsG2362" transform="translate(270.40000000000003, 405.6) scale(2.6)" fill="rgba(174, 180, 230, 1)"></use>
            <use xlink:href="#SvgjsG2360" transform="translate(270.40000000000003, 473.20000000000005) scale(2.6)" fill="rgba(244, 177, 177, 1)"></use>
            <use xlink:href="#SvgjsG2361" transform="translate(270.40000000000003, 540.8000000000001) scale(2.6)" fill="rgba(190, 239, 185, 1)"></use>
            <use xlink:href="#SvgjsG2363" transform="translate(338.00000000000006, 0) scale(2.6)" fill="rgba(190, 239, 185, 1)"></use>
            <use xlink:href="#SvgjsG2361" transform="translate(338.00000000000006, 67.60000000000001) scale(2.6)" fill="rgba(230, 174, 226, 1)"></use>
            <use xlink:href="#SvgjsG2364" transform="translate(338.00000000000006, 135.20000000000002) scale(2.6)" fill="rgba(230, 174, 226, 1)"></use>
            <use xlink:href="#SvgjsG2363" transform="translate(338.00000000000006, 202.8) scale(2.6)" fill="rgba(244, 177, 177, 1)"></use>
            <use xlink:href="#SvgjsG2367" transform="translate(338.00000000000006, 270.40000000000003) scale(2.6)" fill="rgba(244, 177, 177, 1)"></use>
            <use xlink:href="#SvgjsG2358" transform="translate(338.00000000000006, 338.00000000000006) scale(2.6)" fill="rgba(230, 174, 226, 1)"></use>
            <use xlink:href="#SvgjsG2358" transform="translate(338.00000000000006, 405.6) scale(2.6)" fill="rgba(190, 239, 185, 1)"></use>
            <use xlink:href="#SvgjsG2357" transform="translate(338.00000000000006, 473.20000000000005) scale(2.6)" fill="rgba(230, 174, 226, 1)"></use>
            <use xlink:href="#SvgjsG2367" transform="translate(338.00000000000006, 540.8000000000001) scale(2.6)" fill="rgba(244, 177, 177, 1)"></use>
            <use xlink:href="#SvgjsG2365" transform="translate(405.6, 0) scale(2.6)" fill="rgba(230, 174, 226, 1)"></use>
            <use xlink:href="#SvgjsG2367" transform="translate(405.6, 67.60000000000001) scale(2.6)" fill="rgba(230, 174, 226, 1)"></use>
            <use xlink:href="#SvgjsG2356" transform="translate(405.6, 135.20000000000002) scale(2.6)" fill="rgba(190, 239, 185, 1)"></use>
            <use xlink:href="#SvgjsG2368" transform="translate(405.6, 202.8) scale(2.6)" fill="rgba(230, 174, 226, 1)"></use>
            <use xlink:href="#SvgjsG2357" transform="translate(405.6, 270.40000000000003) scale(2.6)" fill="rgba(190, 239, 185, 1)"></use>
            <use xlink:href="#SvgjsG2362" transform="translate(405.6, 338.00000000000006) scale(2.6)" fill="rgba(244, 177, 177, 1)"></use>
            <use xlink:href="#SvgjsG2362" transform="translate(405.6, 405.6) scale(2.6)" fill="rgba(174, 180, 230, 1)"></use>
            <use xlink:href="#SvgjsG2365" transform="translate(405.6, 473.20000000000005) scale(2.6)" fill="rgba(244, 177, 177, 1)"></use>
            <use xlink:href="#SvgjsG2356" transform="translate(405.6, 540.8000000000001) scale(2.6)" fill="rgba(244, 177, 177, 1)"></use>
            <use xlink:href="#SvgjsG2364" transform="translate(473.20000000000005, 0) scale(2.6)" fill="rgba(244, 177, 177, 1)"></use>
            <use xlink:href="#SvgjsG2361" transform="translate(473.20000000000005, 67.60000000000001) scale(2.6)" fill="rgba(190, 239, 185, 1)"></use>
            <use xlink:href="#SvgjsG2367" transform="translate(473.20000000000005, 135.20000000000002) scale(2.6)" fill="rgba(244, 177, 177, 1)"></use>
            <use xlink:href="#SvgjsG2359" transform="translate(473.20000000000005, 202.8) scale(2.6)" fill="rgba(244, 177, 177, 1)"></use>
            <use xlink:href="#SvgjsG2368" transform="translate(473.20000000000005, 270.40000000000003) scale(2.6)" fill="rgba(174, 180, 230, 1)"></use>
            <use xlink:href="#SvgjsG2359" transform="translate(473.20000000000005, 338.00000000000006) scale(2.6)" fill="rgba(174, 180, 230, 1)"></use>
            <use xlink:href="#SvgjsG2357" transform="translate(473.20000000000005, 405.6) scale(2.6)" fill="rgba(244, 177, 177, 1)"></use>
            <use xlink:href="#SvgjsG2357" transform="translate(473.20000000000005, 473.20000000000005) scale(2.6)" fill="rgba(230, 174, 226, 1)"></use>
            <use xlink:href="#SvgjsG2356" transform="translate(473.20000000000005, 540.8000000000001) scale(2.6)" fill="rgba(174, 180, 230, 1)"></use>
            <use xlink:href="#SvgjsG2355" transform="translate(540.8000000000001, 0) scale(2.6)" fill="rgba(174, 180, 230, 1)"></use>
            <use xlink:href="#SvgjsG2360" transform="translate(540.8000000000001, 67.60000000000001) scale(2.6)" fill="rgba(174, 180, 230, 1)"></use>
            <use xlink:href="#SvgjsG2357" transform="translate(540.8000000000001, 135.20000000000002) scale(2.6)" fill="rgba(244, 177, 177, 1)"></use>
            <use xlink:href="#SvgjsG2362" transform="translate(540.8000000000001, 202.8) scale(2.6)" fill="rgba(174, 180, 230, 1)"></use>
            <use xlink:href="#SvgjsG2359" transform="translate(540.8000000000001, 270.40000000000003) scale(2.6)" fill="rgba(230, 174, 226, 1)"></use>
            <use xlink:href="#SvgjsG2355" transform="translate(540.8000000000001, 338.00000000000006) scale(2.6)" fill="rgba(174, 180, 230, 1)"></use>
            <use xlink:href="#SvgjsG2366" transform="translate(540.8000000000001, 405.6) scale(2.6)" fill="rgba(190, 239, 185, 1)"></use>
            <use xlink:href="#SvgjsG2357" transform="translate(540.8000000000001, 473.20000000000005) scale(2.6)" fill="rgba(230, 174, 226, 1)"></use>
            <use xlink:href="#SvgjsG2360" transform="translate(540.8000000000001, 540.8000000000001) scale(2.6)" fill="rgba(174, 180, 230, 1)"></use>
            <use xlink:href="#SvgjsG2364" transform="translate(608.4000000000001, 0) scale(2.6)" fill="rgba(230, 174, 226, 1)"></use>
            <use xlink:href="#SvgjsG2359" transform="translate(608.4000000000001, 67.60000000000001) scale(2.6)" fill="rgba(230, 174, 226, 1)"></use>
            <use xlink:href="#SvgjsG2368" transform="translate(608.4000000000001, 135.20000000000002) scale(2.6)" fill="rgba(190, 239, 185, 1)"></use>
            <use xlink:href="#SvgjsG2356" transform="translate(608.4000000000001, 202.8) scale(2.6)" fill="rgba(230, 174, 226, 1)"></use>
            <use xlink:href="#SvgjsG2363" transform="translate(608.4000000000001, 270.40000000000003) scale(2.6)" fill="rgba(230, 174, 226, 1)"></use>
            <use xlink:href="#SvgjsG2362" transform="translate(608.4000000000001, 338.00000000000006) scale(2.6)" fill="rgba(230, 174, 226, 1)"></use>
            <use xlink:href="#SvgjsG2368" transform="translate(608.4000000000001, 405.6) scale(2.6)" fill="rgba(230, 174, 226, 1)"></use>
            <use xlink:href="#SvgjsG2360" transform="translate(608.4000000000001, 473.20000000000005) scale(2.6)" fill="rgba(174, 180, 230, 1)"></use>
            <use xlink:href="#SvgjsG2362" transform="translate(608.4000000000001, 540.8000000000001) scale(2.6)" fill="rgba(244, 177, 177, 1)"></use>
        </g>
    </defs>
</svg>